<?xml version="1.0" standalone="no"?>
<!DOCTYPE svg PUBLIC "-//W3C//DTD SVG 20010904//EN"
 "http://www.w3.org/TR/2001/REC-SVG-20010904/DTD/svg10.dtd">
<svg version="1.0" xmlns="http://www.w3.org/2000/svg"
 width="108.000000pt" height="210.000000pt" viewBox="0 0 108.000000 210.000000"
 preserveAspectRatio="xMidYMid meet">

<g transform="translate(0.000000,210.000000) scale(0.100000,-0.100000)"
fill="#000000" stroke="none">
<path d="M451 2085 c-83 -19 -172 -56 -164 -68 3 -6 1 -7 -5 -3 -18 11 -104
-58 -90 -72 8 -8 5 -9 -10 -5 -14 3 -24 -2 -33 -19 -7 -12 -12 -27 -11 -31 1
-5 -2 -6 -7 -2 -6 3 -17 -8 -26 -25 -16 -31 -21 -33 -67 -30 -28 1 -38 -13
-18 -25 6 -4 8 -11 5 -16 -11 -17 7 -9 45 21 65 52 117 70 200 70 53 0 88 -6
119 -20 23 -11 48 -17 54 -13 5 3 7 1 4 -4 -4 -6 6 -19 21 -29 15 -9 33 -26
40 -36 7 -10 18 -16 23 -13 5 3 6 -1 3 -9 -4 -11 0 -16 10 -16 14 0 20 11 18
31 -1 3 10 12 23 19 14 7 25 17 25 21 0 4 20 18 45 30 24 12 42 25 40 29 -2 3
38 7 90 9 105 3 157 -13 227 -69 37 -30 54 -38 43 -20 -3 6 -2 10 3 10 6 0 13
7 16 16 4 10 0 15 -12 13 -46 -4 -71 2 -76 19 -7 20 -82 101 -128 139 -35 29
-145 84 -161 82 -7 -1 -23 2 -37 8 -46 19 -142 23 -209 8z m329 -85 c8 -5 11
-10 5 -10 -5 0 -17 5 -25 10 -8 5 -10 10 -5 10 6 0 17 -5 25 -10z m-116 -126
c3 -8 2 -12 -4 -9 -6 3 -10 10 -10 16 0 14 7 11 14 -7z"/>
<path d="M223 1604 c-15 -24 -15 -29 -2 -53 28 -49 109 -32 109 24 0 54 -77
75 -107 29z"/>
<path d="M763 1604 c-15 -24 -15 -29 -2 -53 29 -51 109 -33 109 24 0 56 -76
76 -107 29z"/>
<path d="M507 1442 c-21 -22 -27 -37 -25 -62 3 -29 -2 -37 -36 -60 -22 -15
-61 -33 -87 -40 -27 -8 -46 -16 -44 -20 6 -9 -96 6 -142 21 -43 14 -77 34
-112 66 -14 12 -28 20 -33 17 -4 -3 -5 1 -2 9 3 8 1 18 -5 22 -8 4 -11 -36
-11 -129 l0 -136 536 0 535 0 -2 140 -2 141 -30 -36 c-25 -30 -99 -87 -117
-90 -3 -1 -29 -7 -58 -14 -75 -19 -166 0 -231 48 -19 15 -39 29 -45 33 -6 4
-6 15 1 31 10 21 7 28 -18 55 -17 18 -33 32 -38 32 -4 0 -19 -13 -34 -28z
m-386 -159 c12 -16 12 -17 -2 -6 -9 7 -20 9 -24 5 -5 -4 -5 -1 -1 6 9 16 11
15 27 -5z m867 4 c14 4 14 3 2 -5 -16 -12 -30 -7 -29 11 0 9 2 9 5 0 3 -7 13
-9 22 -6z m-325 -24 c-3 -7 -8 -13 -12 -13 -4 0 -8 6 -8 13 0 8 6 14 13 14 7
0 10 -6 7 -14z"/>
<path d="M10 659 c0 -214 4 -388 8 -385 4 2 9 -5 9 -17 2 -17 0 -19 -7 -7 -7
11 -10 4 -10 -24 0 -33 2 -37 15 -26 8 7 12 16 9 21 -3 5 -2 9 3 8 20 -3 27 2
13 12 -12 8 -10 9 7 4 14 -4 23 -2 23 4 0 6 5 11 10 11 18 0 97 64 114 92 14
22 16 72 16 362 l0 336 -105 0 -105 0 0 -391z"/>
<path d="M318 745 c2 -238 5 -304 15 -298 8 4 7 1 -2 -10 -11 -14 -9 -20 17
-47 l30 -30 160 0 c158 0 161 0 191 26 17 14 29 30 26 34 -3 5 -1 11 5 15 6 4
10 115 10 311 l0 304 -227 0 -228 0 3 -305z m422 -311 c0 -8 -19 -13 -24 -6
-3 5 1 9 9 9 8 0 15 -2 15 -3z"/>
<path d="M860 711 l0 -339 26 -31 c14 -17 32 -31 39 -31 7 0 15 -7 18 -15 4
-8 25 -27 49 -42 24 -15 45 -30 48 -33 41 -42 40 -59 37 397 l-2 428 -107 3
-108 3 0 -340z m57 -358 c-4 -3 -1 -13 6 -21 11 -13 9 -14 -10 -1 -16 9 -19
16 -10 21 15 9 23 10 14 1z"/>
<path d="M335 261 c-7 -13 194 -263 209 -258 16 5 205 239 206 255 0 15 -405
18 -415 3z"/>
</g>
</svg>
